<svg width="33" height="10" viewBox="0 0 33 10" fill="none" xmlns="http://www.w3.org/2000/svg">
<path d="M1.356 9.12C1.204 9.12 1.088 9.096 1.008 9.048C0.936 9.008 0.888 8.948 0.864 8.868C0.84 8.78 0.828 8.68 0.828 8.568V1.284C0.828 1.18 0.84 1.088 0.864 1.008C0.896 0.927999 0.952 0.863999 1.032 0.816C1.112 0.768 1.224 0.744 1.368 0.744H3.996C4.38 0.744 4.732 0.804 5.052 0.924C5.38 1.036 5.664 1.212 5.904 1.452C6.152 1.684 6.344 1.968 6.48 2.304C6.616 2.64 6.684 3.028 6.684 3.468C6.684 3.9 6.616 4.284 6.48 4.62C6.344 4.956 6.152 5.24 5.904 5.472C5.656 5.696 5.368 5.868 5.04 5.988C4.72 6.108 4.368 6.168 3.984 6.168H1.92V8.58C1.92 8.692 1.904 8.788 1.872 8.868C1.848 8.948 1.796 9.008 1.716 9.048C1.644 9.096 1.524 9.12 1.356 9.12ZM1.92 5.076H3.996C4.316 5.076 4.596 5.016 4.836 4.896C5.076 4.768 5.264 4.584 5.4 4.344C5.536 4.096 5.604 3.796 5.604 3.444C5.604 3.108 5.54 2.82 5.412 2.58C5.284 2.34 5.096 2.156 4.848 2.028C4.608 1.9 4.32 1.836 3.984 1.836H1.92V5.076ZM9.78703 9.12C9.53103 9.12 9.29903 9.096 9.09103 9.048C8.89103 9.008 8.71503 8.94 8.56303 8.844C8.41103 8.748 8.28303 8.624 8.17903 8.472C8.08303 8.32 8.01103 8.136 7.96303 7.92C7.92303 7.704 7.90303 7.452 7.90303 7.164V1.164C7.90303 1.044 7.91103 0.944 7.92703 0.864C7.95103 0.784 8.00303 0.724 8.08303 0.684C8.16303 0.635999 8.27503 0.611999 8.41903 0.611999C8.57903 0.611999 8.69503 0.631999 8.76703 0.672C8.84703 0.712 8.89903 0.772 8.92303 0.852C8.94703 0.932 8.95903 1.028 8.95903 1.14V7.152C8.95903 7.312 8.97503 7.452 9.00703 7.572C9.03903 7.684 9.08703 7.78 9.15103 7.86C9.22303 7.94 9.31103 7.996 9.41503 8.028C9.51903 8.06 9.64303 8.076 9.78703 8.076C9.88303 8.076 9.96303 8.088 10.027 8.112C10.099 8.136 10.155 8.184 10.195 8.256C10.235 8.328 10.255 8.44 10.255 8.592C10.255 8.752 10.235 8.872 10.195 8.952C10.155 9.024 10.099 9.068 10.027 9.084C9.96303 9.108 9.88303 9.12 9.78703 9.12ZM16.282 9.108C16.106 9.108 15.978 9.072 15.898 9C15.826 8.928 15.782 8.816 15.766 8.664L15.814 8.064C15.734 8.192 15.61 8.34 15.442 8.508C15.274 8.668 15.054 8.812 14.782 8.94C14.51 9.06 14.178 9.12 13.786 9.12C13.402 9.12 13.042 9.044 12.706 8.892C12.378 8.74 12.086 8.528 11.83 8.256C11.582 7.984 11.386 7.672 11.242 7.32C11.106 6.968 11.038 6.592 11.038 6.192C11.038 5.8 11.106 5.432 11.242 5.088C11.386 4.736 11.586 4.428 11.842 4.164C12.098 3.9 12.39 3.692 12.718 3.54C13.054 3.388 13.41 3.312 13.786 3.312C14.138 3.312 14.438 3.36 14.686 3.456C14.934 3.544 15.146 3.664 15.322 3.816C15.506 3.96 15.666 4.124 15.802 4.308L15.778 3.804C15.77 3.628 15.806 3.504 15.886 3.432C15.974 3.352 16.11 3.312 16.294 3.312C16.446 3.312 16.554 3.336 16.618 3.384C16.69 3.432 16.738 3.5 16.762 3.588C16.786 3.676 16.798 3.784 16.798 3.912V8.544C16.798 8.656 16.786 8.756 16.762 8.844C16.738 8.932 16.69 8.996 16.618 9.036C16.546 9.084 16.434 9.108 16.282 9.108ZM13.966 8.112C14.286 8.112 14.578 8.028 14.842 7.86C15.114 7.692 15.326 7.468 15.478 7.188C15.638 6.9 15.718 6.572 15.718 6.204C15.718 5.828 15.634 5.5 15.466 5.22C15.306 4.932 15.09 4.708 14.818 4.548C14.554 4.38 14.262 4.296 13.942 4.296C13.566 4.296 13.238 4.384 12.958 4.56C12.686 4.728 12.47 4.956 12.31 5.244C12.15 5.532 12.07 5.86 12.07 6.228C12.07 6.588 12.15 6.912 12.31 7.2C12.47 7.48 12.69 7.704 12.97 7.872C13.258 8.032 13.59 8.112 13.966 8.112ZM18.7567 9.108C18.6047 9.108 18.4887 9.084 18.4087 9.036C18.3367 8.996 18.2887 8.936 18.2647 8.856C18.2487 8.776 18.2407 8.68 18.2407 8.568V3.804C18.2407 3.7 18.2527 3.612 18.2767 3.54C18.3007 3.468 18.3487 3.412 18.4207 3.372C18.5007 3.332 18.6167 3.312 18.7687 3.312C18.8887 3.312 18.9807 3.328 19.0447 3.36C19.1167 3.384 19.1647 3.42 19.1887 3.468C19.2207 3.516 19.2407 3.568 19.2487 3.624C19.2567 3.68 19.2607 3.732 19.2607 3.78L19.2367 4.332C19.3167 4.196 19.4167 4.068 19.5367 3.948C19.6567 3.82 19.7967 3.708 19.9567 3.612C20.1167 3.508 20.2887 3.428 20.4727 3.372C20.6647 3.316 20.8687 3.288 21.0847 3.288C21.4367 3.288 21.7607 3.352 22.0567 3.48C22.3527 3.6 22.6047 3.78 22.8127 4.02C23.0287 4.252 23.1927 4.532 23.3047 4.86C23.4247 5.188 23.4847 5.56 23.4847 5.976V8.58C23.4847 8.692 23.4727 8.788 23.4487 8.868C23.4327 8.948 23.3847 9.008 23.3047 9.048C23.2327 9.088 23.1207 9.108 22.9687 9.108C22.8087 9.108 22.6887 9.084 22.6087 9.036C22.5367 8.996 22.4887 8.936 22.4647 8.856C22.4407 8.776 22.4287 8.68 22.4287 8.568V5.964C22.4287 5.628 22.3727 5.336 22.2607 5.088C22.1487 4.84 21.9807 4.648 21.7567 4.512C21.5327 4.368 21.2487 4.296 20.9047 4.296C20.5767 4.296 20.2887 4.368 20.0407 4.512C19.8007 4.648 19.6127 4.84 19.4767 5.088C19.3487 5.336 19.2847 5.628 19.2847 5.964V8.58C19.2847 8.692 19.2727 8.788 19.2487 8.868C19.2247 8.948 19.1727 9.008 19.0927 9.048C19.0207 9.088 18.9087 9.108 18.7567 9.108ZM29.8523 9.108C29.6763 9.108 29.5483 9.072 29.4683 9C29.3963 8.928 29.3523 8.816 29.3363 8.664L29.3843 8.064C29.3043 8.192 29.1803 8.34 29.0123 8.508C28.8443 8.668 28.6243 8.812 28.3523 8.94C28.0803 9.06 27.7483 9.12 27.3563 9.12C26.9723 9.12 26.6123 9.044 26.2763 8.892C25.9483 8.74 25.6563 8.528 25.4003 8.256C25.1523 7.984 24.9563 7.672 24.8123 7.32C24.6763 6.968 24.6083 6.592 24.6083 6.192C24.6083 5.8 24.6763 5.432 24.8123 5.088C24.9563 4.736 25.1563 4.428 25.4123 4.164C25.6683 3.9 25.9603 3.692 26.2883 3.54C26.6243 3.388 26.9803 3.312 27.3563 3.312C27.7083 3.312 28.0083 3.36 28.2563 3.456C28.5043 3.544 28.7163 3.664 28.8923 3.816C29.0763 3.96 29.2363 4.124 29.3723 4.308L29.3483 3.804C29.3403 3.628 29.3763 3.504 29.4563 3.432C29.5443 3.352 29.6803 3.312 29.8643 3.312C30.0163 3.312 30.1243 3.336 30.1883 3.384C30.2603 3.432 30.3083 3.5 30.3323 3.588C30.3563 3.676 30.3683 3.784 30.3683 3.912V8.544C30.3683 8.656 30.3563 8.756 30.3323 8.844C30.3083 8.932 30.2603 8.996 30.1883 9.036C30.1163 9.084 30.0043 9.108 29.8523 9.108ZM27.5363 8.112C27.8563 8.112 28.1483 8.028 28.4123 7.86C28.6843 7.692 28.8963 7.468 29.0483 7.188C29.2083 6.9 29.2883 6.572 29.2883 6.204C29.2883 5.828 29.2043 5.5 29.0363 5.22C28.8763 4.932 28.6603 4.708 28.3883 4.548C28.1243 4.38 27.8323 4.296 27.5123 4.296C27.1363 4.296 26.8083 4.384 26.5283 4.56C26.2563 4.728 26.0403 4.956 25.8803 5.244C25.7203 5.532 25.6403 5.86 25.6403 6.228C25.6403 6.588 25.7203 6.912 25.8803 7.2C26.0403 7.48 26.2603 7.704 26.5403 7.872C26.8283 8.032 27.1603 8.112 27.5363 8.112ZM32.387 9.12C32.235 9.12 32.119 9.096 32.039 9.048C31.967 9.008 31.919 8.948 31.895 8.868C31.871 8.788 31.859 8.692 31.859 8.58V3.84C31.859 3.728 31.871 3.632 31.895 3.552C31.919 3.472 31.967 3.412 32.039 3.372C32.119 3.332 32.239 3.312 32.399 3.312C32.551 3.312 32.663 3.336 32.735 3.384C32.807 3.424 32.855 3.484 32.879 3.564C32.903 3.644 32.915 3.744 32.915 3.864V8.592C32.915 8.704 32.903 8.8 32.879 8.88C32.855 8.96 32.803 9.02 32.723 9.06C32.651 9.1 32.539 9.12 32.387 9.12ZM32.387 1.872C32.211 1.872 32.079 1.848 31.991 1.8C31.903 1.744 31.843 1.668 31.811 1.572C31.787 1.476 31.775 1.364 31.775 1.236C31.775 1.108 31.791 1 31.823 0.912C31.855 0.816 31.915 0.747999 32.003 0.707999C32.091 0.66 32.223 0.636 32.399 0.636C32.567 0.636 32.695 0.66 32.783 0.707999C32.871 0.755999 32.927 0.827999 32.951 0.924C32.983 1.02 32.999 1.132 32.999 1.26C32.999 1.388 32.983 1.5 32.951 1.596C32.927 1.684 32.871 1.752 32.783 1.8C32.695 1.848 32.563 1.872 32.387 1.872Z" fill="black"/>
</svg>
