<?xml version="1.0" standalone="no"?>
<!DOCTYPE svg PUBLIC "-//W3C//DTD SVG 20010904//EN"
 "http://www.w3.org/TR/2001/REC-SVG-20010904/DTD/svg10.dtd">
<svg version="1.0" xmlns="http://www.w3.org/2000/svg"
 width="512.000000pt" height="512.000000pt" viewBox="0 0 512.000000 512.000000"
 preserveAspectRatio="xMidYMid meet">

<g transform="translate(0.000000,512.000000) scale(0.100000,-0.100000)"
fill="#000000" stroke="none">
<path d="M2880 4941 c-50 -15 -88 -41 -127 -85 -33 -38 -52 -81 -136 -322 -59
-168 -97 -294 -97 -317 0 -50 32 -110 72 -138 18 -12 35 -24 37 -25 1 -2 -4
-31 -13 -66 -60 -239 67 -410 304 -411 95 -1 166 30 245 103 l54 52 90 -31
c49 -17 98 -31 109 -31 11 0 25 -7 33 -16 22 -27 66 -44 181 -70 62 -14 114
-26 115 -27 6 -6 -21 -177 -43 -266 -41 -172 -106 -307 -290 -597 l-39 -62
-75 55 c-178 131 -403 248 -600 313 -345 115 -679 87 -1007 -84 l-102 -53 -44
31 c-70 50 -214 114 -322 143 -89 23 -119 26 -270 27 -149 1 -180 -2 -249 -22
-435 -126 -679 -557 -703 -1242 -22 -640 157 -1090 507 -1274 116 -61 225 -87
390 -93 230 -8 406 31 578 130 81 46 89 49 117 37 105 -43 329 -113 440 -137
122 -25 146 -27 380 -28 269 0 368 10 573 60 191 46 418 153 512 240 l25 23
90 -19 c160 -33 370 -52 595 -52 183 -1 229 2 311 20 196 43 319 125 385 257
32 67 35 82 49 241 18 206 33 302 85 538 73 340 74 352 74 597 -1 350 -33 538
-179 1040 -134 461 -174 629 -211 885 -9 66 -25 143 -36 172 -35 94 -137 187
-233 212 -108 28 -1482 301 -1514 300 -20 0 -47 -4 -61 -8z m814 -310 c690
-140 741 -151 775 -178 53 -42 68 -82 91 -238 12 -77 37 -212 55 -300 33 -154
57 -243 180 -665 104 -359 141 -567 151 -845 8 -203 -4 -304 -69 -610 -57
-264 -74 -370 -91 -566 -15 -167 -28 -209 -83 -261 -62 -59 -194 -100 -368
-113 -176 -13 -561 20 -754 66 -46 11 -94 16 -105 13 -12 -4 -45 -29 -74 -55
-146 -133 -404 -229 -713 -265 -195 -22 -460 -15 -614 16 -151 30 -357 99
-491 165 -61 30 -123 55 -136 55 -43 0 -78 -36 -78 -79 0 -20 6 -43 12 -49 16
-16 7 -23 -94 -62 -115 -45 -239 -63 -388 -58 -206 8 -337 64 -466 201 -129
134 -203 319 -245 602 -17 117 -18 481 0 605 71 516 270 805 601 876 99 21
283 14 395 -16 82 -21 227 -84 245 -105 8 -9 0 -23 -25 -48 -44 -44 -48 -95
-10 -132 39 -40 72 -33 156 34 215 173 453 267 704 278 202 9 395 -40 635
-162 110 -56 311 -182 387 -242 l23 -18 -20 -62 c-43 -139 -43 -341 -1 -499
41 -149 170 -366 236 -396 51 -23 115 18 115 75 0 23 -14 51 -54 104 -106 141
-146 254 -153 438 -8 204 16 275 196 565 200 322 259 486 295 815 11 104 22
149 52 227 36 95 38 97 63 90 14 -4 53 -6 86 -6 145 3 304 107 278 182 -24 67
-84 79 -161 31 -94 -58 -179 -57 -224 1 -70 91 -69 90 -107 90 -75 0 -108 -80
-63 -152 l20 -31 -35 -101 c-20 -56 -39 -105 -44 -110 -6 -7 -196 28 -207 39
-3 2 25 89 62 192 36 103 66 202 66 219 0 53 -57 91 -110 72 -38 -13 -44 -24
-115 -228 -32 -91 -61 -169 -66 -174 -6 -7 -102 22 -130 40 -5 3 22 89 58 192
83 235 84 243 45 282 -19 18 -41 30 -57 30 -49 0 -76 -43 -139 -225 -32 -93
-62 -174 -67 -179 -6 -7 -159 40 -159 50 0 1 32 92 70 200 39 109 70 209 70
223 -1 43 -43 81 -89 81 -44 0 -70 -41 -127 -205 -31 -88 -60 -163 -64 -168
-7 -8 -130 33 -130 44 0 17 173 496 186 517 14 21 45 40 69 41 6 1 342 -66
749 -148z m-875 -676 c25 -43 62 -66 163 -102 43 -15 78 -31 78 -34 0 -15 -63
-59 -97 -68 -37 -11 -105 -1 -144 20 -25 13 -49 61 -49 99 0 29 19 120 25 120
2 0 12 -16 24 -35z"/>
<path d="M1504 1870 c-26 -10 -54 -48 -54 -72 0 -60 98 -131 289 -212 228 -96
399 -130 656 -130 204 0 311 18 480 78 96 35 212 94 233 119 26 31 25 72 -3
105 -35 42 -69 42 -148 -2 -361 -200 -907 -171 -1312 69 -86 50 -110 58 -141
45z"/>
</g>
</svg>
