<?xml version="1.0" standalone="no"?>
<!DOCTYPE svg PUBLIC "-//W3C//DTD SVG 20010904//EN"
 "http://www.w3.org/TR/2001/REC-SVG-20010904/DTD/svg10.dtd">
<svg version="1.0" xmlns="http://www.w3.org/2000/svg"
 width="512.000000pt" height="512.000000pt" viewBox="0 0 512.000000 512.000000"
 preserveAspectRatio="xMidYMid meet">

<g transform="translate(0.000000,512.000000) scale(0.100000,-0.100000)"
fill="#000000" stroke="none">
<path d="M4075 5065 c-142 -26 -293 -93 -382 -170 -53 -45 -59 -91 -17 -124
37 -29 52 -27 123 19 158 102 259 134 426 135 146 0 199 -12 334 -77 91 -44
116 -62 192 -137 75 -75 94 -101 137 -192 65 -134 87 -236 79 -369 -20 -322
-244 -595 -557 -677 -89 -23 -273 -23 -360 1 -441 120 -670 578 -501 1001 27
67 30 83 21 106 -11 25 -46 49 -74 49 -63 0 -139 -193 -152 -388 l-7 -90 -66
-28 c-151 -63 -283 -150 -431 -285 l-95 -86 -80 74 c-202 188 -397 300 -621
358 -341 89 -662 31 -921 -164 -107 -81 -143 -122 -143 -166 0 -36 36 -75 70
-75 10 0 53 30 97 67 97 83 169 129 253 164 246 100 537 84 807 -46 131 -62
225 -129 355 -251 127 -120 163 -141 213 -124 18 6 84 59 150 121 120 112 231
193 340 247 94 47 93 47 119 -33 47 -149 114 -256 231 -370 249 -244 602 -317
935 -192 l88 34 21 -71 c31 -108 40 -155 50 -273 25 -278 -48 -568 -201 -799
-62 -93 -127 -165 -487 -533 -229 -234 -483 -494 -564 -577 l-148 -152 -117
-23 c-66 -13 -150 -22 -192 -21 -44 1 -217 28 -424 66 -291 54 -352 68 -372
86 -31 30 -38 70 -20 114 25 60 38 62 283 31 307 -38 384 -41 463 -21 318 82
333 463 24 616 -95 46 -484 120 -674 127 -150 5 -205 -1 -665 -82 l-260 -46
-146 149 c-160 163 -228 251 -296 386 -101 200 -138 381 -130 630 6 185 28
291 96 451 46 107 50 136 21 165 -25 25 -81 27 -102 3 -39 -44 -106 -219 -139
-363 -29 -121 -37 -401 -15 -530 51 -313 174 -554 407 -794 l120 -125 -33 -5
c-170 -29 -277 -46 -287 -46 -6 0 -11 11 -11 24 0 27 -43 74 -74 82 -12 2
-175 4 -363 2 l-343 -3 -27 -28 -28 -27 -3 -689 c-1 -439 1 -698 8 -715 5 -14
24 -35 42 -46 32 -20 47 -20 380 -18 l347 3 30 29 c17 17 31 40 31 53 0 13 5
23 12 23 7 0 334 -87 728 -194 393 -107 753 -200 799 -207 179 -25 310 -2 705
125 127 41 452 145 721 231 270 87 512 169 539 182 69 35 141 106 173 171 22
46 28 70 28 132 0 64 -4 82 -29 128 -46 82 -112 124 -224 144 -79 13 -70 15
-462 -66 -124 -25 -231 -46 -238 -46 -15 0 94 114 628 662 247 253 352 368
398 436 247 362 312 822 176 1249 l-26 82 63 58 c313 290 378 744 158 1116
-55 95 -201 241 -296 296 -191 113 -412 154 -618 116z m-1491 -3289 c135 -25
267 -54 293 -66 58 -25 108 -71 135 -124 58 -113 -38 -225 -192 -226 -25 0
-165 14 -311 32 -235 28 -271 30 -312 19 -177 -50 -232 -289 -95 -417 18 -18
47 -39 64 -48 53 -26 745 -149 844 -149 68 0 180 19 550 91 256 51 490 99 520
107 134 35 229 28 282 -23 75 -70 21 -208 -101 -259 -93 -39 -1508 -486 -1593
-503 -112 -23 -203 -25 -308 -6 -41 8 -398 102 -793 210 -395 108 -721 196
-723 196 -2 0 -3 224 -2 497 l3 497 550 93 c718 122 713 121 836 122 86 1 155
-8 353 -43z m-1894 -671 l0 -615 -270 0 -270 0 0 615 0 615 270 0 270 0 0
-615z"/>
<path d="M4180 4540 c-18 -18 -20 -33 -20 -145 l0 -125 -109 0 c-116 0 -166
-11 -181 -40 -16 -31 -11 -65 13 -88 20 -19 36 -22 147 -24 l125 -3 3 -125 c2
-111 5 -127 24 -147 23 -24 57 -29 88 -13 29 15 40 65 40 181 l0 109 125 0
c112 0 127 2 145 20 25 25 26 71 1 101 -18 23 -27 24 -144 27 l-125 4 -4 125
c-3 117 -4 126 -27 144 -30 25 -76 24 -101 -1z"/>
<path d="M2718 3180 c-9 -6 -83 -127 -165 -270 -81 -143 -150 -260 -153 -260
-3 0 -45 63 -93 140 -90 142 -115 170 -152 170 -34 -1 -50 -21 -145 -178 l-91
-152 -228 0 c-225 0 -228 0 -249 -23 -31 -33 -29 -80 4 -106 25 -20 39 -21
275 -21 156 0 257 4 272 11 14 6 51 56 92 125 37 63 72 113 77 112 5 -2 48
-66 97 -143 97 -154 121 -176 168 -156 25 10 56 56 179 271 81 143 150 257
154 254 3 -3 93 -166 201 -362 260 -474 236 -466 426 -147 l128 214 301 1
c289 0 302 1 328 21 34 27 36 77 3 107 -23 22 -28 22 -358 22 -279 0 -338 -2
-356 -15 -11 -8 -65 -89 -119 -180 -54 -91 -101 -162 -105 -158 -4 5 -94 166
-199 358 -106 193 -199 356 -208 363 -19 14 -60 15 -84 2z"/>
</g>
</svg>
