<svg width="627" height="1100" viewBox="0 0 627 1100" fill="none" xmlns="http://www.w3.org/2000/svg">
<path d="M152.901 28.9334C152.901 44.9334 152.234 63.7339 151.567 70.6672C146.767 116.134 134.501 155.334 111.834 196.934C89.8341 237.468 77.4341 273.734 70.6341 317.334C65.9674 347.468 68.1008 435.868 75.0341 497.334C79.0341 533.468 92.7333 587.368 95 589.501C95.2667 589.901 100.2 589.368 105.8 588.434C115.133 586.968 115.933 586.568 115.267 584.034C113.267 575.368 107.933 535.435 105.8 518.501C98.6 463.701 89.8341 428.934 89.7008 376.001C89.5674 329.334 90.6341 318.401 98.9008 286.001C106.101 257.468 114.234 237.601 136.101 196.401C145.701 178.134 156.101 152.134 161.434 133.334C170.634 99.8677 174.234 71.2001 174.234 28.9334V6.10352e-05H163.567H152.901V28.9334Z" fill="black"/>
<path d="M451.967 37.601C452.767 78.1343 454.234 91.601 460.901 119.334C468.367 150.668 478.634 176.668 495.834 208.401C519.034 250.934 531.034 290.001 535.701 337.201C539.301 373.201 524.2 455.835 515 522.501C512.333 542.635 527.567 640.935 525.434 650.001C524.767 652.535 555.701 654.401 534.901 654.401C540.501 655.335 545.434 655.868 545.701 655.468C546.367 654.801 534.101 608.534 540.901 568.001C552.234 500.268 557.301 441.868 557.434 376.001C557.567 328.534 556.501 317.468 548.901 286.001C541.567 255.068 531.167 228.668 514.767 198.534C498.367 168.534 488.367 143.201 481.834 115.334C475.301 88.2677 473.967 76.001 473.301 36.9343L472.634 0.000976562H461.834H451.167L451.967 37.601Z" fill="black"/>
<path d="M216.901 170.668V181.334H231.301C239.968 181.334 248.768 182.134 253.568 183.334C278.501 189.868 297.434 210.668 301.434 236.134L302.768 245.334H312.901H323.034L324.501 235.868C326.634 222.001 333.701 208.668 343.701 199.468C358.234 186.001 371.301 181.334 394.501 181.334H408.901V170.668V160.001H393.968C385.701 160.001 374.768 160.934 369.834 162.001C350.501 166.134 330.234 179.201 319.301 194.668C316.234 199.068 313.301 202.668 312.901 202.668C312.368 202.668 309.701 199.334 306.901 195.201C299.701 184.801 289.034 175.734 276.368 169.334C262.768 162.534 251.034 160.001 231.968 160.001H216.901V170.668Z" fill="black"/>
<path d="M302.234 328.534V390.401L292.367 399.601C280.501 410.668 269.034 417.601 254.901 422.268C245.301 425.468 242.101 425.868 224.234 425.868C199.167 426.001 193.834 424.534 160.501 407.868C147.434 401.201 136.501 396.001 136.234 396.268C135.301 397.334 127.567 413.468 127.567 414.401C127.567 416.534 180.234 441.334 190.901 444.268C199.701 446.534 205.434 447.068 222.901 447.201C246.101 447.334 254.101 445.868 271.834 438.534L281.034 434.801L280.367 449.068C279.967 456.934 279.301 471.468 278.901 481.334C276.901 528.134 269.467 563.635 262 599.501C261.333 602.968 259.701 648.934 269.567 650.534C275.167 651.468 280.101 652.001 280.367 651.601C280.767 651.201 282.234 643.868 283.701 635.201C294.234 570.401 299.567 516.134 301.834 448.001L302.767 419.334L307.834 414.801L312.901 410.401L317.967 414.801L323.034 419.334L323.967 448.668C325.567 497.334 328.767 538.134 334.367 582.001C337.434 607.068 344.367 650.668 345.301 651.601C345.701 652.001 350.634 651.468 356.234 650.534C366.101 648.934 366.367 648.934 365.701 645.468C358.234 609.601 348.901 528.134 346.901 481.334C346.501 471.468 345.834 456.934 345.434 449.068L344.767 434.801L353.967 438.534C371.701 445.868 379.701 447.334 402.901 447.201C420.367 447.068 426.101 446.534 434.901 444.268C445.567 441.334 498.234 416.534 498.234 414.401C498.234 413.468 490.501 397.334 489.567 396.268C489.301 396.001 478.367 401.201 465.301 407.868C431.967 424.534 426.634 426.001 401.567 425.868C383.701 425.868 380.501 425.468 370.901 422.268C356.767 417.601 345.301 410.668 333.434 399.601L323.567 390.401V328.534V266.668H312.901H302.234V328.534Z" fill="black"/>
<path d="M75.6403 344.68C76.7366 372.086 68.5931 395.263 77.0498 418.598C91.1442 457.592 92.8669 463.073 95.8424 476.698C98.3481 487.66 99.1311 499.093 99.7575 528.691L100.541 566.589L93.3367 583.973C79.7121 615.92 74.0743 647.398 75.6403 680.128C76.8932 702.366 79.5555 715.678 92.2405 760.78C111.973 830.156 121.995 890.292 124.658 955.127L125.597 979.401L88.9518 1000.23C52.3061 1020.9 45.5721 1024.03 36.9588 1024.03C18.1662 1024.03 0 1042.51 0 1061.62C0 1076.5 12.685 1093.57 26.6229 1097.48C31.9475 1098.89 58.1005 1099.2 136.247 1098.89L238.823 1098.42L249.002 1092.78C267.012 1082.92 277.035 1064.91 275.155 1045.33C274.059 1033.12 271.553 1027.32 261.531 1013.85C250.568 998.82 243.521 983.472 240.232 967.342L237.414 953.717L247.906 870.247L258.555 786.62L265.446 772.838C279.854 744.18 286.274 717.557 287.684 681.851C288.937 645.049 284.238 608.873 274.686 582.093C270.77 571.601 270.77 571.444 273.433 557.82C276.721 539.967 299.742 506.698 293.322 482.738C289.406 467.86 288.31 460.5 287.997 447.501L287.84 431.058L274.372 427.837C290.503 394.01 297.08 460.254 299.429 428.62L300.525 414.213H287.997H275.469L274.372 427.837C240.626 447.001 270.149 427.001 250.5 427.001C240.321 447.204 238.04 449.135 238.04 463.543C238.04 476.072 241.485 496.743 245.87 510.525C248.846 519.921 251.978 546.387 250.255 546.387C249.785 546.387 244.931 544.351 239.449 541.689C233.968 539.184 225.668 536.678 221.283 536.051L212.983 534.955V547.327V559.699L221.127 561.735C230.993 564.084 240.389 570.191 245.4 578.022C249.942 584.756 255.736 603.705 259.495 623.907C262.94 642.23 263.253 695.632 260.121 711.606C254.953 737.602 245.87 759.527 230.68 782.548C220.97 797.112 217.055 799.931 210.321 797.112C206.719 795.546 202.96 789.282 189.492 763.286C180.566 745.589 172.579 731.181 171.953 731.181C171.326 731.181 166.158 733.374 160.677 736.193L150.654 741.048L167.568 775.031C181.192 802.28 185.89 810.11 190.902 814.495C200.455 822.639 212.043 825.458 223.632 822.169C227.078 821.073 228.644 821.229 228.644 822.326C228.644 823.265 225.042 852.394 220.657 886.847C213.14 946.044 212.67 950.429 214.393 964.053C216.742 983.786 223.632 1001.95 235.378 1019.34C250.255 1041.26 250.882 1042.67 250.099 1051.13C249.472 1059.11 246.027 1064.91 238.98 1070.08C234.751 1073.36 232.872 1073.36 133.741 1073.83L32.8871 1074.15L28.972 1070.39C20.8285 1062.24 26.6229 1049.09 38.2117 1049.09C51.5231 1049.09 59.8232 1045.49 102.107 1021.53C125.597 1008.06 146.113 995.688 147.679 993.965C150.967 990.206 151.124 975.329 148.775 937.117C144.547 872.439 134.367 815.905 114.322 746.216C102.107 703.776 101.01 697.668 101.01 670.105C101.01 644.892 103.046 631.267 109.78 610.439C114.792 594.935 127.32 570.348 137.813 555.94C142.981 548.736 147.209 542.785 146.896 542.629C146.582 542.316 142.198 538.87 137.186 534.799C131.235 530.1 127.477 528.065 126.85 529.161C126.224 530.1 125.284 521.8 124.814 510.838C123.562 485.311 119.02 461.507 110.877 439.269C96.782 400.118 95.0594 394.794 92.2405 381.169C90.5178 373.495 88.7952 357.052 88.1687 344.68L87.2291 322.442H74.7007L75.6403 344.68Z" fill="black"/>
<path d="M311.801 379.501C314.15 411.292 304.128 383.048 319.788 414.996L330.281 436.137L330.124 453.364C329.967 467.772 341.712 487.841 337.327 503.501C332.786 519.788 351.735 522.897 351.735 538.557C351.735 548.423 352.675 559.542 353.771 563.301C355.494 569.252 355.181 571.288 350.952 584.443C341.086 615.137 337.484 643.639 338.737 680.285C339.833 716.304 346.567 744.023 360.818 772.526L367.866 786.463L378.358 870.247L388.851 953.874L386.188 967.029C382.9 984.099 378.202 994.279 365.83 1012.13C353.615 1029.67 350.013 1039.38 351.109 1052.69C352.675 1070.7 363.481 1086.52 379.768 1094.51L387.598 1098.42L490.174 1098.89C568.007 1099.2 594.473 1098.89 599.798 1097.32C609.038 1094.82 621.879 1082.29 624.542 1073.21C628.613 1059.27 625.951 1047.68 615.928 1036.56C608.881 1028.73 599.172 1024.03 589.775 1024.03C580.849 1024.03 574.115 1021.06 537.626 1000.23L501.137 979.401V969.222C501.137 916.133 513.509 834.541 531.831 768.767C536.686 751.071 542.324 730.399 544.36 722.882C556.262 676.996 552.503 629.702 533.084 583.973L525.88 566.59L526.663 528.691C527.29 499.093 528.073 487.661 530.579 476.698C533.554 463.074 535.277 457.592 549.371 418.598C557.828 395.577 549.684 366.645 550.781 339.239L551.72 317.001H539.192V322.442L538.252 344.68C537.626 357.052 535.903 373.495 534.18 381.169C531.362 394.794 529.639 400.118 515.544 439.27C507.401 461.664 502.703 485.468 501.607 510.838C501.137 521.957 500.197 530.101 499.571 529.161C498.944 528.065 495.186 530.101 489.235 534.799C484.223 538.871 479.838 542.316 479.525 542.629C479.212 542.786 483.44 548.737 488.608 555.94C499.101 570.348 511.629 594.935 516.641 610.439C523.688 631.894 525.411 644.736 525.254 670.889C525.097 699.078 524.158 703.932 512.099 746.059C491.897 816.218 482.188 870.091 477.646 936.021C475.14 973.293 475.454 990.207 478.899 993.965C483.127 998.82 561.9 1042.98 572.079 1046.27C577.247 1047.84 584.137 1049.09 587.426 1049.09C599.798 1049.09 605.906 1061.93 597.449 1070.39L593.534 1074.15L492.68 1073.83C393.549 1073.36 391.67 1073.36 387.441 1070.08C380.394 1064.91 376.949 1059.11 376.322 1051.13C375.539 1042.67 376.166 1041.26 391.043 1019.34C402.789 1001.95 409.679 983.786 412.028 964.054C413.594 950.429 413.281 945.888 405.764 886.691C401.379 852.081 397.777 823.109 397.777 822.326C397.777 821.23 399.5 821.23 402.789 822.169C414.691 825.458 426.593 822.796 435.676 814.496C440.53 810.111 445.855 801.184 458.853 775.031L475.767 741.048L465.744 736.193C460.263 733.374 455.095 731.182 454.468 731.182C453.842 731.182 446.012 745.589 436.928 763.286C423.617 789.282 419.702 795.547 416.1 797.113C409.366 799.931 405.451 797.113 395.741 782.548C380.864 759.997 372.72 740.735 367.083 715.208C363.324 697.825 362.541 657.577 365.517 634.87C368.492 612.162 375.539 586.165 380.864 578.178C386.032 570.192 395.271 564.084 405.294 561.735L413.438 559.699V547.327V534.955L405.294 536.052C400.753 536.678 392.453 539.184 386.972 541.689C381.49 544.352 376.636 546.388 376.166 546.388C374.286 546.388 405.294 482.501 392.5 460.501C399.86 435.601 358 447.57 353.771 431.753C352.519 426.898 347.507 414.996 342.653 405.286C337.798 395.733 340.146 451.771 337.327 443.001C332.159 427.341 337.327 433.945 337.327 421.417V414.996H324.642L311.801 405.286V379.501Z" fill="black"/>
</svg>
