<svg width="964" height="1318" viewBox="0 0 964 1318" fill="none" xmlns="http://www.w3.org/2000/svg">
<g filter="url(#filter0_d_10_100)">
<path fill-rule="evenodd" clip-rule="evenodd" d="M253.513 512C252.457 517.338 251.5 522.771 250.634 528.324C245.967 558.457 248.101 646.857 255.034 708.324C258.38 738.553 268.515 781.216 273.065 795.601C259.637 827.329 254.085 858.605 255.64 891.118C256.893 913.355 259.555 926.667 272.24 971.769C291.973 1041.15 301.995 1101.28 304.658 1166.12L305.597 1190.39L268.952 1211.22C232.306 1231.89 225.572 1235.02 216.959 1235.02C198.166 1235.02 180 1253.5 180 1272.61C180 1287.49 192.685 1304.56 206.623 1308.47C211.947 1309.88 238.101 1310.19 316.247 1309.88L418.823 1309.41L429.002 1303.77C447.012 1293.91 457.035 1275.9 455.155 1256.32C454.059 1244.11 451.553 1238.31 441.531 1224.84C430.568 1209.81 423.521 1194.46 420.232 1178.33L417.414 1164.71L427.906 1081.24L438.555 997.609L445.446 983.828C459.854 955.169 466.274 928.546 467.684 892.84C468.328 873.924 467.4 855.174 465.048 837.779C474.693 776.636 479.666 724.155 481.834 658.99L482.767 630.324L487.834 625.79L492.901 621.39L497.967 625.79L501.069 628.565L503.109 632.676L503.967 659.657C505.567 708.324 508.767 749.124 514.367 792.99C515.977 806.146 518.651 824.406 520.965 838.925C518.756 855.131 518.081 872.086 518.737 891.274C519.833 927.294 526.567 955.013 540.819 983.515L547.866 997.453L568.851 1164.86L566.189 1178.02C562.9 1195.09 558.202 1205.27 545.83 1223.12C533.615 1240.66 530.013 1250.37 531.109 1263.68C532.675 1281.69 543.481 1297.51 559.768 1305.5L567.598 1309.41L670.174 1309.88C748.007 1310.19 774.474 1309.88 779.798 1308.31C789.038 1305.81 801.88 1293.28 804.542 1284.2C808.614 1270.26 805.951 1258.67 795.929 1247.55C788.881 1239.72 779.172 1235.02 769.775 1235.02C760.849 1235.02 754.115 1232.05 717.626 1211.22L681.137 1190.39V1180.21C681.137 1127.12 693.509 1045.53 711.832 979.756C716.686 962.06 722.324 941.388 724.36 933.871C734.963 892.993 733.137 850.996 718.882 809.984C718.682 799.839 719.183 789.232 720.901 778.99C725.864 749.327 729.626 721.454 732.297 693.959L687.628 676.983C684.297 691.369 682.277 706.305 681.607 721.828C681.137 732.947 680.197 741.09 679.571 740.15C678.944 739.054 675.186 741.09 669.235 745.788C666.729 747.824 664.38 749.703 662.619 751.113C660.857 752.522 659.682 753.462 659.525 753.618C659.212 753.775 663.44 759.726 668.608 766.93C679.101 781.338 691.629 805.925 696.641 821.428C703.688 842.883 705.411 855.725 705.254 881.878C705.097 910.067 704.158 914.922 692.099 957.049C671.897 1027.21 662.188 1081.08 657.646 1147.01C655.14 1184.28 655.454 1201.2 658.899 1204.95C663.127 1209.81 741.9 1253.97 752.079 1257.26C757.247 1258.83 764.138 1260.08 767.426 1260.08C779.798 1260.08 785.906 1272.92 777.449 1281.38L773.534 1285.14L672.68 1284.82L671.88 1284.82C573.539 1284.35 571.658 1284.34 567.441 1281.06C560.394 1275.9 556.949 1270.1 556.322 1262.12C555.539 1253.66 556.166 1252.25 571.043 1230.32C582.789 1212.94 589.679 1194.78 592.028 1175.04C593.594 1161.42 593.281 1156.88 585.764 1097.68C581.379 1063.07 577.777 1034.1 577.777 1033.32C577.777 1032.22 579.5 1032.22 582.789 1033.16C594.691 1036.45 606.593 1033.79 615.676 1025.49C620.531 1021.1 625.855 1012.17 638.853 986.021L655.767 952.037L645.744 947.183C640.263 944.364 635.095 942.171 634.468 942.171C633.842 942.171 626.012 956.579 616.929 974.275C603.617 1000.27 599.702 1006.54 596.1 1008.1C589.366 1010.92 585.451 1008.1 575.741 993.538C560.864 970.987 552.721 951.724 547.083 926.197C544.018 912.023 542.932 882.646 544.248 859.972C546.16 859.306 546.086 858.461 545.701 856.457C545.413 855.074 545.122 853.623 544.829 852.11C545.031 849.913 545.26 847.82 545.517 845.859C548.492 823.151 555.539 797.155 560.864 789.168C566.032 781.181 575.272 775.073 585.294 772.724L593.438 770.688V745.945L585.294 747.041C580.753 747.667 572.453 750.173 566.972 752.679C561.49 755.341 556.636 757.377 556.166 757.377C555.735 757.377 557.03 754.026 559.129 748.594C566.193 730.31 582.364 688.452 572.5 671.491C574.519 664.66 572.834 660.604 569.238 657.988C573.21 658.169 577.669 658.22 582.901 658.19C600.367 658.057 606.101 657.524 614.901 655.257C616.604 654.789 619.379 653.763 622.839 652.36L582.052 636.859C581.891 636.859 581.73 636.858 581.567 636.857C563.701 636.857 560.501 636.457 550.901 633.257C541.091 630.018 532.565 625.687 524.299 619.639C523.752 618.499 523.201 617.373 522.653 616.276C521.763 614.524 521.115 614.977 520.633 616.831C518.348 615.003 516.072 613.035 513.782 610.914L482.234 598.924V601.39L472.367 610.59C460.501 621.657 449.034 628.59 434.901 633.257C425.301 636.457 422.101 636.857 404.234 636.857C379.167 636.99 373.834 635.524 340.501 618.857C327.434 612.19 316.501 606.99 316.234 607.257C315.301 608.324 307.567 624.457 307.567 625.39C307.567 627.524 360.234 652.324 370.901 655.257C379.701 657.524 385.434 658.057 402.901 658.19C410.04 658.231 415.74 658.121 420.728 657.735C418.666 662.858 418.04 666.982 418.04 674.532C418.04 687.061 421.485 707.733 425.87 721.514C428.846 730.91 431.978 757.377 430.255 757.377C429.785 757.377 424.931 755.341 419.449 752.679C413.968 750.173 405.668 747.667 401.283 747.041L392.983 745.944V770.688L401.127 772.724C410.993 775.073 420.389 781.181 425.4 789.011C429.942 795.745 435.736 814.694 439.495 834.896C442.94 853.219 443.253 906.621 440.121 922.595C434.953 948.592 425.87 970.516 410.68 993.537C400.97 1008.1 397.055 1010.92 390.321 1008.1C386.719 1006.54 382.96 1000.27 369.492 974.275C360.566 956.578 352.579 942.171 351.953 942.171C351.326 942.171 346.158 944.363 340.677 947.182L330.654 952.037L347.568 986.02C361.192 1013.27 365.89 1021.1 370.902 1025.48C380.455 1033.63 392.043 1036.45 403.632 1033.16C407.078 1032.06 408.644 1032.22 408.644 1033.32C408.644 1034.25 405.042 1063.38 400.657 1097.84C393.14 1157.03 392.67 1161.42 394.393 1175.04C396.742 1194.77 403.632 1212.94 415.378 1230.32C430.255 1252.25 430.882 1253.66 430.099 1262.12C429.472 1270.1 426.027 1275.9 418.98 1281.06C414.763 1284.34 412.882 1284.35 314.541 1284.82L313.741 1284.82L212.887 1285.14L208.972 1281.38C200.828 1273.23 206.623 1260.08 218.212 1260.08C231.523 1260.08 239.823 1256.48 282.107 1232.52C305.597 1219.05 326.113 1206.68 327.679 1204.95C330.967 1201.2 331.124 1186.32 328.775 1148.11C324.547 1083.43 314.367 1026.89 294.322 957.205C282.107 914.765 281.01 908.657 281.01 881.095C281.01 855.881 283.046 842.257 289.78 821.428C294.792 805.924 307.32 781.337 317.813 766.93C322.981 759.726 327.209 753.775 326.896 753.618C326.739 753.462 325.564 752.522 323.803 751.112L323.802 751.111C322.04 749.702 319.691 747.823 317.186 745.788C311.235 741.09 307.477 739.054 306.85 740.15C306.224 741.09 305.284 732.79 304.814 721.827C303.562 696.301 299.02 672.497 290.877 650.259C276.782 611.107 275.059 605.783 272.24 592.158C271.342 588.154 270.443 581.763 269.7 574.808C269.791 549.024 270.595 535.563 273.663 519.658L253.513 512ZM530.578 743.202C530.989 747.608 531.424 752.067 531.879 756.546C531.787 754.218 531.735 751.848 531.735 749.547C531.735 747.174 531.3 745.089 530.578 743.202ZM534.636 781.824C534.345 779.329 534.059 776.823 533.777 774.311C534.601 777.159 534.956 779.111 534.636 781.824Z" fill="black"/>
<path fill-rule="evenodd" clip-rule="evenodd" d="M392.411 1.73333C388.544 4.66667 387.478 11.3333 387.478 32.1333V51.7333L382.544 53.0667C381.211 53.3841 379.153 53.913 376.887 54.4952C374.394 55.1359 371.65 55.8412 369.344 56.4C331.744 66 283.078 89.7333 262.944 108.4L256.411 114.533H243.611C221.078 114.533 202.011 120.667 186.278 132.933C166.278 148.267 155.211 168.933 152.678 195.467C150.278 220.933 154.278 242.8 164.278 259.467L169.078 267.2L164.944 279.867C155.078 309.867 152.278 332.8 153.211 371.6C153.311 375.741 153.457 379.787 153.651 383.751L173.699 391.01C171.44 364.591 172.161 338.881 176.144 317.2C178.544 304.667 181.478 292.4 183.478 287.067L184.811 283.6L190.278 288.4C200.144 297.467 206.944 298 210.944 290.267C214.011 284.4 212.278 281.6 197.611 267.733C184.544 255.333 178.011 245.467 174.678 232.667C172.011 222.933 172.278 193.067 174.944 183.733C182.011 159.867 202.144 140.933 225.878 136C230.278 135.067 250.811 134.533 280.011 134.533C325.611 134.533 327.211 134.4 330.678 131.733C335.078 128.267 335.478 121.2 331.478 117.2C329.078 114.8 326.944 114.533 307.744 114.533L286.811 114.4L294.144 109.733C317.744 94.5333 363.478 76.6667 390.811 72C408.411 68.9333 408.811 68.2667 408.811 35.2C408.811 5.73333 407.078 0 398.144 0C396.278 0 393.744 0.8 392.411 1.73333ZM320.881 444.303L278.086 428.808C282.083 407.153 283.478 382.101 283.478 345.333V311.2L278.678 304.533C265.744 286.533 260.278 269.6 258.944 243.867C257.878 226.267 258.944 219.6 263.078 216.4C266.544 213.733 271.878 214.133 275.211 217.2L278.278 220.267C278.411 220.4 278.944 230.133 279.478 241.867C280.678 266.933 282.944 274.8 292.811 289.733C300.944 301.867 317.211 317.6 325.611 321.467C332.011 324.4 333.478 324.533 382.811 324.933C432.278 325.333 433.611 325.333 442.811 322.4C450.544 319.867 453.611 318 460.544 311.2L468.811 303.067V287.867C468.811 266.133 471.211 260 479.478 260C487.611 260 490.144 266.133 490.144 285.6C490.144 301.067 491.078 303.467 501.478 312.933C507.344 318.267 511.078 320.533 518.011 322.533C526.678 325.2 529.744 325.333 577.611 324.933C626.811 324.533 628.278 324.4 634.678 321.467C643.078 317.6 659.344 301.867 667.478 289.733C677.344 274.8 679.611 266.933 680.811 241.867C681.344 230.133 681.878 220.4 682.011 220.267C683.078 218 688.811 214.533 691.344 214.533C700.278 214.667 702.544 221.333 701.344 243.867C700.011 270.267 694.944 285.6 681.211 304.933L675.211 313.467L675.878 358.267C676.944 422 679.211 435.333 696.278 480C698.544 486 698.544 486.667 695.744 501.333C690.765 526.134 689.427 547.03 691.822 578.617L671.303 571.187C669.723 543.39 671.126 522.456 675.478 501.467L678.144 488.267L672.811 474C669.878 466.267 666.011 454.533 664.278 448.133L661.211 436.533L656.944 449.733C654.678 457.067 652.411 464.933 652.011 467.467C651.078 472.533 646.011 477.2 641.478 477.2C639.744 477.2 637.078 476 635.344 474.667C632.811 472.667 632.144 470.933 632.278 466.267C632.544 458.8 642.678 428.267 650.678 411.067L656.944 397.733L655.878 386.267L654.811 374.667L644.811 380.8C639.344 384.133 633.744 387.733 632.544 388.933C631.211 390 626.811 397.6 622.544 405.733C618.411 413.867 614.144 421.2 612.944 422.133C607.211 426.533 598.144 421.733 598.144 414.4C598.144 409.467 611.344 383.067 616.944 376.533C619.211 374 628.811 367.2 638.278 361.467L655.478 351.2V342.133C655.478 337.067 655.078 333.2 654.544 333.467C641.611 340 634.811 342.667 628.944 343.867C624.944 344.667 600.944 345.2 573.611 345.2C520.544 345.2 514.678 344.533 500.811 337.067C496.678 334.933 490.278 330.533 486.678 327.333L480.144 321.6L473.611 327.333C470.011 330.533 463.611 334.933 459.478 337.067C445.611 344.533 439.744 345.2 386.678 345.2C360.144 345.2 335.211 344.667 331.344 343.867C327.344 343.2 319.478 340.267 313.878 337.333L303.478 332.133V351.333L319.078 360.533C327.611 365.467 336.944 371.733 339.611 374.133C345.744 379.733 360.811 408.267 360.811 414.4C360.811 421.733 351.744 426.533 346.011 422.133C344.811 421.2 340.544 413.867 336.411 405.733C332.144 397.6 327.744 390 326.411 388.933C325.211 387.733 319.611 384.133 314.144 380.8L304.144 374.667L303.078 386.267L302.011 397.733L308.278 411.067C312.52 420.271 317.112 432.5 320.881 444.303ZM449.021 490.701L383.108 466.835C382.744 463.825 382.55 460.194 382.411 455.6C381.878 440.4 381.878 440 385.344 436.667C389.611 432.267 394.678 432.267 398.811 436.533C401.878 439.467 402.144 440.8 402.144 452.267C402.144 462.933 402.544 465.333 404.944 468.4C411.211 476.267 418.811 477.6 434.544 473.2C439.744 471.733 450.011 470.133 457.211 469.6L470.144 468.8V416.8L461.744 417.733C457.211 418.133 449.211 419.733 444.144 421.2C426.144 426.4 410.278 423.467 399.611 413.2C392.011 405.733 389.744 400.8 389.078 388.933C388.544 379.333 388.678 378.533 391.878 375.333C396.278 370.933 401.344 370.933 405.478 375.2C408.144 377.867 408.811 379.733 408.811 385.6C408.811 393.733 411.611 398.533 418.144 401.867C423.344 404.533 429.078 404.4 441.078 401.333C446.678 399.867 455.478 398.267 460.678 397.733L470.144 396.8V375.6C470.144 354.933 470.278 354.4 473.478 351.2C475.211 349.333 478.278 347.867 480.144 347.867C482.011 347.867 485.078 349.333 486.811 351.2C490.011 354.4 490.144 354.933 490.144 375.6V396.8L500.144 397.733C505.611 398.267 514.811 399.867 520.411 401.2C532.544 404.4 538.278 404.533 543.478 401.867C550.011 398.533 552.811 393.733 552.811 385.6C552.811 379.733 553.478 377.867 556.144 375.2C560.278 370.933 565.344 370.933 569.744 375.333C572.944 378.533 573.078 379.333 572.544 388.933C571.878 400.8 569.611 405.733 562.011 413.2C551.478 423.467 535.478 426.4 517.744 421.333C512.811 419.867 504.544 418.267 499.344 417.733L490.144 416.8V468.8L503.878 469.6C511.344 470 521.878 471.6 527.078 473.2C542.811 477.6 550.411 476.267 556.678 468.4C559.078 465.333 559.478 462.933 559.478 452.267C559.478 440.8 559.744 439.467 562.811 436.533C566.944 432.267 572.011 432.267 576.278 436.667C579.744 440 579.744 440.4 579.211 455.6C578.678 473.2 577.344 476.667 568.678 485.2C558.011 495.467 542.011 498.4 524.144 493.2C518.944 491.6 509.211 490 502.544 489.6L490.144 488.8V505.592L470.144 498.35V488.8L458.544 489.6C455.708 489.774 452.345 490.173 449.021 490.701ZM640.866 560.166L622.078 553.363C625.743 546.149 626.923 538.226 627.611 526.533C628.011 519.633 628.411 513.633 628.586 511.008C628.644 510.133 628.678 509.633 628.678 509.6L631.744 506.533C637.878 500.8 646.544 504.8 648.144 514.267C649.917 525.015 646.165 547 640.866 560.166ZM573.805 535.884L554.146 528.766C554.172 517.895 554.541 516.676 557.478 513.867C561.611 509.6 566.678 509.6 570.944 514C574.411 517.333 574.411 517.6 573.878 533.6C573.855 534.388 573.831 535.149 573.805 535.884ZM783.888 611.953L764.727 605.015C764.97 603.555 765.22 602.062 765.478 600.533C772.144 562 772.544 534.667 766.811 502.533C764.144 487.467 764.278 485.067 768.144 474.4C772.544 462.133 780.144 430.267 782.811 413.2C785.744 394.267 786.944 347.733 784.944 331.333C783.211 318 778.144 294 775.611 287.333L774.144 283.6L768.678 288.4C758.811 297.467 752.011 298 748.011 290.267C745.078 284.533 746.544 282 761.211 267.867C774.544 255.2 780.944 245.467 784.278 232.667C786.944 222.933 786.678 193.067 784.011 183.733C776.944 159.867 756.811 140.933 733.078 136C728.411 135.067 697.878 134.533 640.678 134.533C569.078 134.533 554.678 134.8 550.811 136.533C548.144 137.6 540.144 144.133 532.811 151.2C522.411 161.067 518.678 163.867 515.744 163.867C510.278 163.867 506.144 159.467 506.144 153.467C506.144 148.933 507.211 147.467 519.078 136C528.411 126.933 534.411 122.4 540.678 119.333L549.478 115.2L672.144 114.4L664.811 109.733C640.944 94.4 595.344 76.6667 568.144 72C550.544 68.9333 550.144 68.2667 550.144 35.2C550.144 11.4667 551.078 4.80001 555.078 1.73334C556.411 0.800008 558.944 8.14183e-06 560.811 8.14183e-06C569.478 8.14183e-06 571.478 5.86667 571.478 32.1333V51.7333L576.544 53.0667C577.523 53.3113 578.95 53.6817 580.583 54.1052L580.584 54.1056C583.4 54.8361 586.826 55.7249 589.611 56.4C627.211 66 675.878 89.7334 696.011 108.4L702.544 114.533H715.344C731.878 114.533 744.278 117.333 757.478 123.733C780.944 135.2 797.744 155.733 804.144 180.933C805.878 187.6 806.278 194.267 805.878 211.6C805.211 236.8 803.344 245.067 794.678 259.2L789.878 267.2L794.011 279.867C803.878 310.133 806.678 332.8 805.744 371.6C804.811 410.267 799.878 440.667 789.211 473.6L784.544 488.133L786.678 500.667C792.811 536.4 792.144 562 784.011 611.2C783.97 611.45 783.929 611.701 783.888 611.953ZM364.944 131.333C361.478 128.133 361.211 120.4 364.411 116.8C366.544 114.533 368.411 114.4 388.144 114.8L388.218 114.801C409.345 115.2 409.622 115.205 418.811 119.733C425.344 122.933 431.478 127.733 440.411 136.4C451.611 147.467 452.811 148.933 452.811 153.467C452.811 159.467 448.678 163.867 443.211 163.867C440.278 163.867 436.544 161.067 426.411 151.467C419.211 144.533 411.878 138.133 410.144 137.067C407.878 135.867 400.278 135.067 387.344 134.533C370.544 134 367.344 133.467 364.944 131.333ZM348.811 300.533C348.811 297.6 349.878 295.067 351.744 293.2C354.278 290.933 356.411 290.533 367.478 290.533C382.411 290.533 386.144 292.533 386.144 300.533C386.144 308.533 382.411 310.533 367.478 310.533C352.544 310.533 348.811 308.533 348.811 300.533ZM575.744 307.867C578.278 310.133 580.411 310.533 591.478 310.533C606.411 310.533 610.144 308.533 610.144 300.533C610.144 292.533 606.411 290.533 591.478 290.533C580.411 290.533 578.278 290.933 575.744 293.2C571.744 296.933 571.744 304.133 575.744 307.867Z" fill="black"/>
<path d="M948.127 734C952.545 735.586 957.413 733.291 959 728.873C960.586 724.455 958.291 719.587 953.873 718L948.127 734ZM4.12719 395L948.127 734L953.873 718L9.87281 379L4.12719 395Z" fill="black"/>
</g>
<defs>
<filter id="filter0_d_10_100" x="0.127197" y="0" width="963.375" height="1317.99" filterUnits="userSpaceOnUse" color-interpolation-filters="sRGB">
<feFlood flood-opacity="0" result="BackgroundImageFix"/>
<feColorMatrix in="SourceAlpha" type="matrix" values="0 0 0 0 0 0 0 0 0 0 0 0 0 0 0 0 0 0 127 0" result="hardAlpha"/>
<feOffset dy="4"/>
<feGaussianBlur stdDeviation="2"/>
<feComposite in2="hardAlpha" operator="out"/>
<feColorMatrix type="matrix" values="0 0 0 0 0 0 0 0 0 0 0 0 0 0 0 0 0 0 0.25 0"/>
<feBlend mode="normal" in2="BackgroundImageFix" result="effect1_dropShadow_10_100"/>
<feBlend mode="normal" in="SourceGraphic" in2="effect1_dropShadow_10_100" result="shape"/>
</filter>
</defs>
</svg>
