<?xml version="1.0" standalone="no"?>
<!DOCTYPE svg PUBLIC "-//W3C//DTD SVG 20010904//EN"
 "http://www.w3.org/TR/2001/REC-SVG-20010904/DTD/svg10.dtd">
<svg version="1.0" xmlns="http://www.w3.org/2000/svg"
 width="512.000000pt" height="512.000000pt" viewBox="0 0 512.000000 512.000000"
 preserveAspectRatio="xMidYMid meet">

<g transform="translate(0.000000,512.000000) scale(0.100000,-0.100000)"
fill="#000000" stroke="none">
<path d="M3060 5109 c-424 -48 -829 -246 -1121 -546 -155 -159 -256 -303 -350
-497 -210 -436 -243 -925 -93 -1384 44 -137 137 -328 214 -443 33 -50 60 -93
60 -97 0 -4 -80 -87 -177 -183 l-178 -177 -52 -5 c-114 -13 -107 -7 -725 -624
-661 -661 -633 -626 -633 -788 1 -114 29 -181 109 -260 75 -72 143 -99 256
-99 75 -1 93 3 155 32 66 31 102 65 632 595 605 606 603 604 625 731 l10 61
171 173 c95 94 175 172 179 172 4 0 44 -25 90 -56 227 -153 547 -270 815 -300
57 -6 63 -5 87 19 30 30 33 66 8 97 -14 18 -42 26 -147 45 -155 27 -256 54
-369 100 -309 124 -563 325 -761 600 -74 102 -181 310 -220 430 -193 575 -77
1191 312 1657 356 427 928 658 1481 597 670 -73 1232 -525 1442 -1158 338
-1017 -325 -2086 -1385 -2232 -69 -10 -95 -18 -112 -35 -30 -30 -29 -69 3
-101 24 -24 30 -25 87 -19 263 29 564 137 789 282 307 198 567 503 702 824
116 275 165 535 153 810 -22 494 -213 920 -564 1261 -111 107 -164 150 -283
229 -349 229 -797 336 -1210 289z m-1110 -3164 l75 -75 -138 -138 -137 -137
-28 35 c-34 44 -48 58 -92 92 l-35 28 135 135 c74 74 137 135 140 135 3 0 39
-34 80 -75z m-443 -326 c42 -16 101 -79 117 -126 35 -102 14 -161 -99 -273
l-85 -85 -152 153 -153 152 75 76 c41 41 89 83 105 92 57 30 129 34 192 11z
m-322 -439 l150 -150 -420 -421 c-231 -231 -433 -427 -449 -436 -16 -8 -54
-17 -85 -20 -146 -13 -260 130 -221 277 10 41 53 87 438 473 235 235 429 427
432 427 3 0 73 -68 155 -150z"/>
<path d="M3045 4730 c-543 -84 -1000 -463 -1183 -981 -62 -175 -77 -273 -77
-489 1 -162 5 -212 23 -297 63 -291 198 -539 407 -748 224 -224 493 -363 806
-416 168 -29 402 -23 559 14 618 146 1069 638 1151 1253 18 138 6 395 -24 524
-114 483 -458 879 -917 1056 -172 66 -280 85 -495 89 -104 2 -217 0 -250 -5z
m439 -155 c555 -97 994 -536 1091 -1091 19 -112 19 -323 0 -444 -19 -113 -70
-270 -121 -371 -196 -391 -557 -654 -994 -725 -116 -19 -357 -14 -470 11 -521
114 -921 515 -1035 1035 -22 103 -31 336 -16 441 73 514 417 931 902 1093 58
20 144 42 190 50 115 19 345 20 453 1z"/>
<path d="M3092 4330 c-181 -48 -332 -171 -416 -340 -45 -91 -75 -203 -76 -286
0 -53 28 -128 65 -171 93 -109 262 -115 363 -14 46 46 60 79 72 163 6 40 19
84 29 98 69 95 193 93 265 -3 15 -20 21 -43 21 -80 0 -76 -29 -116 -112 -158
-148 -75 -256 -220 -283 -380 -24 -142 1 -242 76 -309 51 -44 98 -62 165 -62
73 0 133 27 182 81 46 51 58 78 66 155 4 44 11 62 26 70 157 88 250 180 314
309 52 105 62 166 32 196 -31 31 -84 28 -110 -5 -12 -15 -21 -32 -21 -38 0 -6
-16 -45 -35 -85 -45 -94 -133 -183 -232 -234 -89 -46 -114 -82 -122 -178 -7
-73 -24 -101 -69 -117 -34 -11 -83 2 -108 29 -16 17 -19 36 -18 103 2 155 66
256 215 336 59 32 93 59 121 93 154 195 25 481 -224 495 -89 5 -153 -17 -218
-75 -63 -57 -89 -105 -105 -201 -16 -91 -43 -124 -99 -124 -81 0 -115 56 -99
160 15 95 48 174 101 245 53 69 158 146 236 172 65 22 208 31 276 16 142 -30
277 -136 343 -267 19 -38 43 -76 52 -84 26 -21 75 -17 97 9 27 34 22 71 -19
152 -51 100 -171 220 -270 272 -146 76 -326 97 -481 57z"/>
<path d="M3187 2636 c-80 -29 -134 -83 -163 -163 -17 -49 -17 -89 0 -147 53
-175 270 -233 406 -110 140 127 86 365 -96 420 -58 17 -98 17 -147 0z m124
-153 c81 -48 50 -183 -43 -183 -93 0 -141 107 -75 167 40 37 75 41 118 16z"/>
<path d="M1099 4701 c-41 -42 -36 -62 53 -178 116 -152 130 -166 166 -166 43
0 72 28 72 69 0 25 -17 55 -75 131 -104 138 -126 161 -157 169 -22 5 -34 0
-59 -25z"/>
<path d="M756 4209 c-32 -25 -36 -77 -7 -103 23 -21 283 -106 323 -106 58 0
93 85 51 122 -18 16 -296 108 -325 108 -8 0 -27 -9 -42 -21z"/>
<path d="M916 3664 c-76 -24 -147 -49 -157 -55 -43 -22 -34 -104 13 -127 23
-11 44 -7 184 37 93 29 164 57 171 67 14 19 17 72 5 90 -9 14 -47 34 -64 34
-7 -1 -75 -21 -152 -46z"/>
</g>
</svg>
