<?xml version="1.0" standalone="no"?>
<!DOCTYPE svg PUBLIC "-//W3C//DTD SVG 20010904//EN"
 "http://www.w3.org/TR/2001/REC-SVG-20010904/DTD/svg10.dtd">
<svg version="1.0" xmlns="http://www.w3.org/2000/svg"
 width="512.000000pt" height="512.000000pt" viewBox="0 0 512.000000 512.000000"
 preserveAspectRatio="xMidYMid meet">

<g transform="translate(0.000000,512.000000) scale(0.100000,-0.100000)"
fill="#000000" stroke="none">
<path d="M1907 5106 c-29 -22 -37 -72 -37 -228 l0 -147 -37 -10 c-21 -5 -66
-17 -99 -25 -282 -72 -647 -250 -798 -390 l-49 -46 -96 0 c-169 0 -312 -46
-430 -138 -150 -115 -233 -270 -252 -469 -18 -191 12 -355 87 -480 l36 -58
-31 -95 c-74 -225 -95 -397 -88 -688 7 -290 44 -518 124 -765 l35 -109 -16
-94 c-46 -268 -41 -460 20 -829 19 -116 37 -255 40 -310 3 -55 7 -119 10 -143
9 -75 74 -107 123 -60 23 21 24 24 18 167 -3 100 -17 214 -41 360 -62 366 -67
542 -21 802 20 114 19 125 -15 227 -125 372 -166 830 -105 1162 18 94 40 186
55 226 l10 26 41 -36 c74 -68 125 -72 155 -14 23 44 10 65 -100 169 -98 93
-147 167 -172 263 -20 73 -18 297 2 367 53 179 204 321 382 358 33 7 187 11
406 11 342 0 354 1 380 21 33 26 36 79 6 109 -18 18 -34 20 -178 20 l-157 1
55 35 c177 114 520 248 725 283 132 23 135 28 135 276 0 221 -13 264 -80 264
-14 0 -33 -6 -43 -13z"/>
<path d="M3127 5106 c-30 -23 -37 -73 -37 -251 0 -248 3 -253 135 -276 204
-35 546 -168 725 -283 l55 -35 -460 -3 -460 -3 -66 -31 c-47 -23 -92 -57 -162
-125 -89 -86 -97 -97 -97 -131 0 -45 31 -78 72 -78 22 0 50 21 128 95 55 53
115 102 135 110 29 13 137 15 674 15 429 0 658 -4 693 -11 178 -37 329 -179
382 -358 20 -70 22 -294 2 -367 -25 -96 -73 -169 -173 -264 -110 -106 -121
-125 -99 -168 30 -58 81 -54 155 14 l41 36 11 -28 c19 -50 57 -230 70 -330 15
-123 6 -472 -16 -614 -20 -128 -77 -367 -110 -459 -29 -80 -30 -98 -10 -211
43 -241 40 -446 -10 -735 -40 -237 -55 -361 -55 -470 0 -94 2 -106 22 -125 28
-25 68 -26 95 0 24 22 29 52 37 205 3 55 21 194 40 310 61 369 66 561 20 829
l-16 94 35 109 c80 247 117 475 124 765 7 291 -14 461 -88 688 l-31 95 36 60
c65 106 79 168 84 357 3 130 0 180 -13 230 -48 189 -174 343 -350 429 -99 48
-192 69 -316 69 l-96 0 -49 46 c-151 140 -516 318 -798 390 -33 8 -78 20 -98
25 l-38 10 0 147 c0 197 -15 241 -80 241 -14 0 -33 -6 -43 -13z"/>
<path d="M1697 4243 c-24 -27 -22 -85 4 -109 18 -16 42 -20 168 -24 97 -4 154
-10 171 -19 13 -8 68 -56 122 -108 76 -72 104 -93 126 -93 41 0 72 33 72 78 0
34 -9 45 -93 128 -67 65 -113 101 -162 125 -69 34 -71 34 -230 37 -148 3 -162
2 -178 -15z"/>
<path d="M937 3496 c-31 -24 -39 -74 -31 -206 10 -193 51 -320 148 -455 l36
-50 0 -256 c0 -467 -30 -682 -134 -948 -20 -51 -36 -103 -36 -115 0 -11 9 -64
20 -116 11 -52 24 -153 30 -225 10 -120 12 -132 36 -152 40 -36 85 -29 109 17
17 34 5 217 -25 372 l-19 99 34 87 c18 48 45 132 60 187 15 55 29 102 30 104
7 7 66 -197 79 -274 8 -44 17 -175 19 -291 5 -194 7 -217 32 -290 15 -43 35
-93 45 -110 l19 -30 -34 -80 c-67 -157 -94 -313 -95 -554 0 -163 18 -209 80
-209 58 0 80 47 80 171 l0 78 693 0 c684 0 694 0 715 20 30 28 30 82 0 110
-21 20 -31 20 -716 20 l-695 0 6 59 c7 60 61 246 75 255 4 3 64 -40 132 -95
69 -54 135 -102 148 -105 51 -14 101 37 88 90 -4 18 -53 63 -150 141 -164 131
-199 167 -235 245 -24 52 -26 68 -33 278 -4 129 -14 263 -24 315 -21 119 -89
325 -148 453 l-47 100 8 86 8 87 75 -46 c41 -25 83 -52 92 -61 10 -8 43 -65
75 -126 31 -61 63 -116 72 -123 43 -33 111 3 111 58 0 46 -113 260 -159 302
-20 18 -90 65 -154 102 l-117 69 0 72 0 72 78 -39 c42 -22 101 -44 131 -49 29
-6 216 -10 415 -10 398 0 442 5 546 61 31 16 79 49 106 73 l49 43 49 -43 c27
-24 75 -57 106 -73 104 -56 148 -61 546 -61 205 0 385 4 415 10 44 9 95 29
192 78 4 2 7 -27 7 -65 l0 -68 -129 -77 c-71 -43 -143 -94 -160 -113 -42 -49
-141 -247 -141 -284 0 -55 68 -91 111 -58 9 7 41 62 72 123 32 61 65 118 75
126 9 9 51 36 92 61 l75 46 8 -87 8 -86 -47 -100 c-60 -129 -136 -358 -138
-414 -1 -35 4 -48 23 -63 13 -10 33 -19 46 -19 34 0 72 35 79 73 3 19 20 78
37 133 l32 99 23 -87 c13 -48 42 -136 64 -194 l40 -107 -20 -99 c-51 -246 -48
-491 10 -933 16 -127 30 -253 30 -280 0 -64 14 -113 37 -131 26 -20 66 -17 91
6 19 18 22 31 22 99 0 43 -13 183 -30 312 -59 459 -61 664 -8 928 21 110 21
115 4 160 -128 335 -145 435 -153 913 l-5 336 45 64 c103 145 141 260 151 458
9 169 -8 219 -75 220 -19 0 -62 -26 -70 -43 -1 -1 -5 -74 -9 -162 -9 -188 -26
-247 -100 -359 -61 -91 -183 -209 -246 -238 -48 -22 -59 -23 -428 -26 -359 -3
-382 -2 -447 18 -52 15 -80 32 -124 72 -78 71 -85 89 -85 205 0 146 -19 192
-80 192 -62 0 -80 -46 -80 -209 l0 -114 -62 -61 c-52 -51 -75 -65 -133 -84
-69 -22 -79 -22 -450 -19 -370 3 -381 4 -429 26 -63 29 -185 147 -246 238 -74
112 -91 171 -100 359 -4 88 -8 161 -9 162 -1 1 -11 11 -23 23 -25 23 -65 26
-91 6z"/>
<path d="M1602 2920 c-14 -14 -22 -33 -22 -55 0 -60 28 -75 140 -75 112 0 140
15 140 75 0 60 -28 75 -140 75 -83 0 -99 -3 -118 -20z"/>
<path d="M3282 2920 c-30 -28 -30 -82 0 -110 19 -17 35 -20 118 -20 112 0 140
15 140 75 0 60 -28 75 -140 75 -83 0 -99 -3 -118 -20z"/>
<path d="M2515 2485 c-24 -24 -25 -28 -25 -183 l0 -159 -71 -7 c-39 -4 -105
-16 -147 -27 -90 -23 -133 -24 -172 -4 -49 25 -70 61 -70 122 0 44 -5 58 -25
78 -31 32 -69 32 -102 -1 -24 -24 -25 -30 -21 -102 5 -89 22 -126 79 -182 80
-77 199 -99 334 -60 38 11 98 23 132 26 l63 7 0 -195 0 -195 -97 -6 c-54 -4
-131 -16 -170 -27 -118 -33 -175 -23 -222 36 -18 23 -21 41 -21 121 0 86 -2
96 -25 118 -31 32 -69 32 -101 -1 -26 -25 -26 -28 -22 -142 4 -132 14 -158 79
-222 80 -77 200 -99 334 -60 39 12 109 24 158 27 l87 6 0 -220 0 -220 -75 -7
c-41 -4 -110 -16 -152 -26 -123 -32 -175 -23 -222 36 -18 23 -21 40 -21 126 0
92 -2 101 -25 123 -31 32 -69 32 -101 -1 -26 -25 -26 -27 -22 -147 4 -138 13
-163 79 -227 81 -79 200 -99 338 -57 68 20 97 22 281 22 184 0 213 -2 281 -22
138 -42 257 -22 338 57 66 64 75 89 79 227 4 120 4 122 -22 147 -32 33 -70 33
-101 1 -23 -22 -25 -31 -25 -123 0 -86 -3 -103 -21 -126 -47 -60 -99 -68 -225
-36 -43 12 -114 23 -156 27 l-78 6 0 220 0 220 93 -6 c50 -3 123 -15 162 -27
134 -39 254 -17 334 60 65 64 75 90 79 222 4 114 4 117 -22 142 -32 33 -70 33
-101 1 -23 -22 -25 -32 -25 -118 0 -80 -3 -98 -21 -121 -47 -59 -104 -69 -222
-36 -39 12 -118 24 -174 27 l-103 6 0 195 0 195 69 -7 c39 -4 101 -16 138 -27
133 -38 253 -16 332 61 57 56 74 93 79 182 4 72 3 78 -21 102 -33 33 -71 33
-102 1 -20 -20 -25 -34 -25 -78 0 -61 -21 -97 -70 -122 -39 -20 -82 -19 -173
5 -42 10 -111 22 -152 26 l-75 7 0 159 c0 155 -1 159 -25 183 -13 14 -36 25
-50 25 -14 0 -37 -11 -50 -25z"/>
<path d="M3702 1320 c-12 -12 -22 -22 -23 -23 0 -1 -4 -58 -8 -127 -12 -204
-44 -255 -284 -442 -83 -66 -129 -108 -133 -125 -13 -52 37 -103 88 -89 13 3
79 50 148 105 69 55 128 97 132 95 14 -9 68 -196 75 -255 l6 -59 -300 0 c-287
0 -300 -1 -321 -20 -14 -14 -22 -33 -22 -55 0 -22 8 -41 22 -55 21 -19 34 -20
320 -20 l298 0 0 -78 c0 -124 22 -171 81 -172 38 0 67 33 75 87 10 71 -3 369
-21 452 -17 83 -58 208 -87 264 -18 36 -18 40 -3 64 52 79 96 298 80 395 -12
71 -77 101 -123 58z"/>
<path d="M989 731 c-20 -16 -25 -40 -51 -227 -15 -115 -31 -266 -35 -335 -6
-123 -5 -126 17 -147 27 -25 66 -28 93 -8 23 18 37 68 37 131 0 28 14 154 30
280 17 126 30 240 30 253 0 30 -43 72 -73 72 -14 0 -35 -8 -48 -19z"/>
</g>
</svg>
