<?xml version="1.0" standalone="no"?>
<!DOCTYPE svg PUBLIC "-//W3C//DTD SVG 20010904//EN"
 "http://www.w3.org/TR/2001/REC-SVG-20010904/DTD/svg10.dtd">
<svg version="1.0" xmlns="http://www.w3.org/2000/svg"
 width="512.000000pt" height="512.000000pt" viewBox="0 0 512.000000 512.000000"
 preserveAspectRatio="xMidYMid meet">

<g transform="translate(0.000000,512.000000) scale(0.100000,-0.100000)"
fill="#000000" stroke="none">
<path d="M535 5104 c-275 -58 -506 -320 -531 -601 -5 -63 207 -3144 222 -3233
12 -67 57 -175 99 -240 74 -115 162 -192 288 -250 132 -62 96 -60 1082 -60
l900 0 33 -60 c88 -160 236 -315 409 -430 400 -264 914 -302 1328 -98 117 57
155 90 155 133 0 35 -36 75 -68 75 -8 0 -56 -22 -106 -49 -405 -219 -901 -179
-1279 105 -510 383 -624 1079 -264 1614 133 198 369 376 600 453 175 59 415
78 587 48 684 -121 1126 -836 934 -1510 -32 -113 -109 -267 -180 -361 -74 -98
-80 -111 -63 -146 16 -32 55 -50 91 -41 48 12 190 226 252 380 191 473 84
1040 -268 1424 -124 134 -300 255 -464 319 -53 21 -98 39 -100 40 -2 1 26 417
62 925 70 1000 70 993 22 1125 -71 194 -226 347 -425 418 l-86 31 -1580 2
c-1362 1 -1590 0 -1650 -13z m3224 -149 c207 -49 370 -228 400 -439 7 -46 -6
-280 -54 -959 -35 -495 -65 -901 -67 -902 -2 -2 -24 1 -48 7 -74 18 -342 15
-443 -5 -505 -101 -913 -470 -1051 -951 -31 -106 -43 -178 -52 -313 l-7 -103
-598 0 -598 0 -27 -23 c-35 -31 -38 -82 -5 -109 22 -17 55 -18 636 -18 l612 0
13 -62 c6 -35 22 -96 35 -135 l23 -73 -857 0 c-935 0 -915 -1 -1025 58 -66 34
-184 152 -218 218 -15 28 -34 77 -43 109 -10 38 -53 593 -126 1629 -125 1762
-122 1644 -50 1791 68 139 218 256 362 284 24 5 737 9 1584 10 1341 1 1548 -1
1604 -14z"/>
<path d="M916 4715 c-74 -26 -125 -81 -146 -154 -10 -38 30 -727 49 -845 13
-75 48 -126 110 -160 l49 -26 1178 0 c1126 0 1181 1 1219 19 49 23 89 64 109
113 18 42 70 736 64 854 -3 59 -8 78 -32 113 -16 23 -50 54 -75 69 l-46 27
-908 3 -907 3 -25 -25 c-31 -31 -33 -78 -5 -106 20 -20 33 -20 906 -20 890 0
914 -1 936 -34 12 -18 9 -101 -17 -475 -20 -293 -28 -357 -41 -373 -16 -17
-61 -18 -1174 -18 -1151 0 -1157 0 -1175 20 -16 18 -22 70 -46 416 -18 259
-25 404 -19 420 14 36 48 44 189 44 145 0 161 7 161 73 0 27 -7 41 -26 56 -24
19 -40 21 -158 21 -86 -1 -145 -6 -170 -15z"/>
<path d="M1635 4425 l-25 -24 0 -270 c0 -148 3 -277 6 -286 11 -27 62 -45 96
-33 38 13 48 35 48 103 l0 57 83 -77 c45 -42 92 -81 104 -86 46 -17 93 18 93
70 0 33 -9 45 -115 145 l-115 110 112 106 c103 99 111 109 104 136 -9 37 -41
64 -77 64 -21 0 -48 -18 -106 -70 l-78 -70 -5 56 c-4 43 -11 61 -29 75 -32 26
-67 24 -96 -6z"/>
<path d="M2311 4429 c-124 -40 -211 -163 -211 -298 0 -166 102 -290 263 -320
186 -34 336 97 341 297 2 80 -17 92 -149 92 -100 0 -104 -1 -124 -26 -44 -57
-7 -124 69 -124 47 0 52 -15 16 -53 -64 -69 -195 -46 -245 43 -68 121 28 271
163 256 27 -3 59 -12 72 -21 73 -47 158 31 109 101 -21 31 -112 66 -180 70
-42 3 -79 -2 -124 -17z"/>
<path d="M3740 2211 c-74 -15 -136 -66 -164 -133 -14 -32 -16 -101 -16 -463 0
-234 -1 -425 -2 -425 -2 0 -27 9 -56 20 -68 26 -116 25 -178 -4 -132 -62 -174
-228 -86 -341 29 -36 409 -363 445 -382 46 -25 151 -24 200 2 56 30 433 360
464 406 31 47 41 120 23 174 -16 48 -72 111 -122 136 -71 36 -124 35 -220 -6
-17 -7 -18 17 -18 411 -1 450 -2 460 -54 528 -43 57 -141 92 -216 77z m100
-179 c19 -24 20 -42 20 -528 0 -276 3 -510 6 -519 9 -22 61 -47 85 -40 11 4
54 35 95 71 82 69 106 76 148 43 31 -25 35 -76 9 -107 -29 -33 -366 -323 -390
-334 -12 -6 -32 -8 -46 -4 -31 7 -405 330 -419 361 -16 35 -2 72 33 91 42 21
63 14 139 -52 79 -68 103 -79 138 -62 52 25 52 26 52 563 0 430 2 504 15 522
27 38 83 36 115 -5z"/>
</g>
</svg>
